<?xml version="1.0" encoding="UTF-8"?><svg id="b" xmlns="http://www.w3.org/2000/svg" width="3862.1" height="3854.98" viewBox="0 0 3862.1 3854.98"><g id="c"><polygon points="1221.71 913.37 1047.19 1014.13 1047.19 1215.67 1221.71 1114.9 1221.71 913.37" fill="#fff" fill-rule="evenodd" stroke-width="0"/><polygon points="2105.58 403.08 1931.03 503.83 1756.53 604.59 1581.98 705.37 1396.24 812.59 1396.24 1014.13 1756.53 806.15 1931.03 705.37 2105.58 604.59 2280.12 503.83 2454.64 403.08 2629.17 302.29 2803.69 403.08 2814.91 409.54 2989.42 510.3 3163.96 611.06 3338.51 711.83 3338.51 510.3 3163.96 409.54 2989.42 308.76 2978.24 302.29 2814.91 208.01 2803.69 201.54 2629.17 100.76 2454.63 201.54 2280.12 302.29 2105.58 201.54 1931.03 100.76 1830.29 158.95 1756.53 201.54 1581.98 302.29 1407.44 403.08 1232.93 503.83 1047.19 611.06 1047.19 812.62 1047.19 812.59 1407.44 604.61 1581.98 503.83 1709.75 430.07 1756.53 403.08 1931.03 302.29 2105.58 403.08" fill="#fff" fill-rule="evenodd" stroke-width="0"/><polygon points="2454.64 806.13 2280.12 705.37 2105.58 806.13 2280.12 906.9 2454.64 806.13" fill="#fff" fill-rule="evenodd" stroke-width="0"/><polygon points="3338.51 1316.42 3163.96 1215.67 2989.46 1114.9 2814.91 1014.13 2629.17 906.9 2454.63 1007.66 2814.91 1215.67 2989.46 1316.42 3163.96 1417.2 3338.51 1517.95 3513.03 1618.74 3687.56 1719.49 3687.56 1921.03 3687.56 1933.96 3687.56 2135.5 3687.56 2337.03 3687.56 2538.57 3862.1 2437.79 3862.1 2236.26 3862.1 2034.72 3862.1 2021.78 3862.1 1833.21 3862.1 1820.27 3862.1 1618.74 3687.56 1517.95 3513.03 1417.2 3513.03 1215.67 3513.03 1014.13 3338.51 913.37 3163.96 812.59 2989.42 711.83 2814.91 611.08 2814.91 611.06 2629.17 503.83 2454.63 604.61 2814.91 812.59 2989.42 913.37 3163.96 1014.13 3338.51 1114.9 3338.51 1316.42" fill="#fff" fill-rule="evenodd" stroke-width="0"/><polygon points="3163.96 1820.27 3163.96 1618.74 2989.46 1517.95 2989.46 1719.49 3163.96 1820.27" fill="#fff" fill-rule="evenodd" stroke-width="0"/><polygon points="3163.96 2840.86 3163.98 2639.32 3163.96 2437.79 3163.98 2236.26 3163.98 2021.78 2989.46 1921.03 2989.42 2337.03 2989.46 2538.57 2989.46 2740.11 2989.46 2941.62 2989.46 3143.15 2989.46 3344.69 2814.91 3445.44 2803.69 3451.91 2629.17 3552.69 2454.64 3653.44 2280.12 3754.23 2454.64 3854.98 2629.17 3754.23 2803.69 3653.44 2814.91 3646.97 2978.24 3552.69 2989.46 3546.22 3163.96 3445.44 3163.96 3243.91 3163.98 3042.39 3338.51 2941.62 3513.03 2840.86 3513.03 2755.67 3513.03 2639.32 3513.03 2437.79 3513.03 2236.26 3513.03 2034.72 3513.03 1820.27 3338.51 1719.49 3338.51 2135.5 3338.51 2337.03 3338.51 2480.37 3338.51 2538.57 3338.51 2740.08 3163.96 2840.86" fill="#fff" fill-rule="evenodd" stroke-width="0"/><polygon points="2640.37 2941.62 2814.91 2840.86 2814.91 2639.32 2640.37 2740.08 2640.37 2941.62" fill="#fff" fill-rule="evenodd" stroke-width="0"/><polygon points="1756.53 3451.91 1931.05 3351.16 2105.58 3250.4 2280.12 3149.62 2465.86 3042.39 2465.86 2840.86 2105.58 3048.85 1931.03 3149.62 1756.53 3250.4 1581.98 3351.16 1407.44 3451.91 1232.93 3552.69 1058.39 3451.91 1047.19 3445.44 872.64 3344.69 698.14 3243.92 523.59 3143.15 523.59 3344.69 698.14 3445.44 872.64 3546.22 883.86 3552.69 1047.19 3646.97 1058.39 3653.44 1232.93 3754.23 1407.48 3653.44 1581.98 3552.69 1756.53 3653.44 1931.03 3754.23 2031.82 3696.03 2105.58 3653.44 2280.12 3552.69 2454.64 3451.91 2629.17 3351.16 2814.91 3243.92 2814.91 3042.37 2814.91 3042.39 2454.64 3250.37 2280.12 3351.16 2152.33 3424.92 2105.58 3451.91 1931.05 3552.69 1756.53 3451.91" fill="#fff" fill-rule="evenodd" stroke-width="0"/><polygon points="1407.44 3048.85 1581.98 3149.62 1756.53 3048.85 1581.98 2948.08 1407.44 3048.85" fill="#fff" fill-rule="evenodd" stroke-width="0"/><polygon points="523.59 2538.57 698.14 2639.32 872.64 2740.11 1047.19 2840.86 1232.93 2948.08 1407.48 2847.32 1047.19 2639.32 872.64 2538.57 698.14 2437.79 523.59 2337.03 349.05 2236.26 174.54 2135.5 174.54 1933.96 174.54 1921.03 174.54 1719.49 174.54 1517.95 174.54 1316.44 0 1417.2 0 1618.74 0 1820.27 0 1833.21 0 2021.8 0 2034.75 0 2236.26 174.54 2337.03 349.05 2437.79 349.05 2639.32 349.05 2840.86 523.59 2941.62 698.14 3042.39 872.64 3143.15 1047.19 3243.91 1047.19 3243.92 1232.93 3351.16 1407.48 3250.4 1047.19 3042.39 872.64 2941.62 698.14 2840.86 523.59 2740.11 523.59 2538.57" fill="#fff" fill-rule="evenodd" stroke-width="0"/><polygon points="698.14 2034.75 698.14 2236.26 872.64 2337.03 872.64 2135.5 698.14 2034.75" fill="#fff" fill-rule="evenodd" stroke-width="0"/><polygon points="523.59 1114.9 698.14 1014.13 698.1 1215.67 698.14 1417.2 698.1 1618.74 698.1 1833.21 872.64 1933.96 872.64 1517.95 872.64 1316.42 872.64 1114.9 872.64 913.37 872.64 711.83 872.64 510.3 1047.19 409.54 1058.39 403.08 1232.93 302.29 1407.44 201.54 1581.98 100.76 1407.44 0 1232.93 100.76 1058.39 201.54 1047.19 208.01 883.86 302.29 872.64 308.76 698.1 409.54 698.14 611.08 698.1 812.59 523.59 913.37 349.05 1014.13 349.05 1099.32 349.05 1215.67 349.05 1417.2 349.05 1618.74 349.05 1820.27 349.05 2034.75 523.59 2135.5 523.59 1719.49 523.59 1517.95 523.59 1432.79 523.59 1316.42 523.59 1114.9" fill="#fff" fill-rule="evenodd" stroke-width="0"/></g></svg>